<svg width="29" height="29" viewBox="0 0 29 29" fill="none" xmlns="http://www.w3.org/2000/svg">
<path d="M14.5 0C8.59284 0 3.78723 4.80561 3.78723 10.7127C3.78723 12.6574 4.65937 14.7489 4.69592 14.8371C4.97761 15.5057 5.53341 16.5442 5.93419 17.153L13.2793 28.2822C13.5799 28.7385 14.0248 29 14.5 29C14.9751 29 15.42 28.7385 15.7206 28.2829L23.0664 17.153C23.4678 16.5442 24.023 15.5057 24.3046 14.8371C24.3412 14.7495 25.2127 12.658 25.2127 10.7127C25.2127 4.80561 20.4071 0 14.5 0ZM23.1426 14.3481C22.8912 14.9474 22.3738 15.9135 22.014 16.4592L14.6682 27.5891C14.5233 27.809 14.4773 27.809 14.3323 27.5891L6.98656 16.4592C6.62674 15.9135 6.10937 14.9468 5.85794 14.3475C5.84723 14.3217 5.04755 12.3965 5.04755 10.7127C5.04755 5.50067 9.28791 1.26032 14.5 1.26032C19.712 1.26032 23.9524 5.50067 23.9524 10.7127C23.9524 12.399 23.1508 14.3292 23.1426 14.3481Z" fill="#0079FE"/>
<path d="M14.4999 5.04199C11.3725 5.04199 8.82849 7.58658 8.82849 10.7134C8.82849 13.8403 11.3725 16.3849 14.4999 16.3849C17.6274 16.3849 20.1714 13.8403 20.1714 10.7134C20.1714 7.58658 17.6274 5.04199 14.4999 5.04199ZM14.4999 15.1246C12.0682 15.1246 10.0888 13.1459 10.0888 10.7134C10.0888 8.28102 12.0682 6.30231 14.4999 6.30231C16.9317 6.30231 18.9111 8.28102 18.9111 10.7134C18.9111 13.1459 16.9317 15.1246 14.4999 15.1246Z" fill="#0079FE"/>
</svg>
