<svg width="23" height="22" viewBox="0 0 23 22" fill="none" xmlns="http://www.w3.org/2000/svg">
<path d="M15.3778 11.0007L22.3448 4.19471C23.1146 3.44271 23.1146 2.22355 22.3448 1.47273L21.416 0.565404C20.646 -0.186823 19.398 -0.186823 18.6294 0.565404L11.6627 7.37117L4.69576 0.563994C3.92598 -0.187998 2.67799 -0.187998 1.90941 0.563994L0.979187 1.47132C0.209412 2.22355 0.209412 3.44271 0.979187 4.19353L7.94734 11.0007L0.980631 17.8065C0.210614 18.5587 0.210614 19.7779 0.980631 20.5287L1.90941 21.436C2.67919 22.188 3.92719 22.188 4.69576 21.436L11.6627 14.63L18.6294 21.436C19.3994 22.188 20.6474 22.188 21.416 21.436L22.3448 20.5287C23.1146 19.7765 23.1146 18.5573 22.3448 17.8065L15.3778 11.0007Z" fill="#F78C8C"/>
</svg>
