<svg width="72" height="72" viewBox="0 0 72 72" fill="none" xmlns="http://www.w3.org/2000/svg">
<circle cx="36.1429" cy="35.9999" r="35.2143" stroke="#0079FE"/>
<g clip-path="url(#clip0)">
<path d="M46.2355 19.5714H29.608C27.5462 19.5714 25.8835 21.2341 25.8503 23.2959C23.855 23.3957 22.292 25.0584 22.292 27.0537V50.0993C22.292 52.1611 23.988 53.8571 26.0498 53.8571H42.6772C44.739 53.8571 46.4017 52.1943 46.435 50.1325C48.4303 50.0328 49.9932 48.37 49.9932 46.3747V23.3624C50.0265 21.2674 48.3305 19.5714 46.2355 19.5714ZM45.2046 50.0993C45.2046 51.496 44.0739 52.6266 42.6772 52.6266H26.0498C24.6531 52.6266 23.5557 51.496 23.5557 50.1325V27.0537C23.5557 25.657 24.6863 24.5596 26.0498 24.5596H39.4847V30.3459C39.4847 30.6785 39.7508 30.9778 40.1166 30.9778H45.2046V50.0993ZM40.7484 29.7141V25.5572L44.4397 29.7141H40.7484ZM46.4682 48.9021V30.3459C46.4682 30.2794 46.435 30.1796 46.435 30.1131C46.435 30.0799 46.4017 30.0466 46.4017 30.0466C46.3685 30.0134 46.3685 29.9801 46.3352 29.9469L40.5821 23.4954C40.5489 23.4622 40.4824 23.4289 40.4159 23.3957C40.3826 23.3957 40.3826 23.3624 40.3494 23.3624C40.2828 23.3292 40.1831 23.2959 40.0833 23.2959H27.1139C27.1472 21.9324 28.2446 20.835 29.608 20.835H46.2355C47.6322 20.835 48.7296 21.9657 48.7296 23.3292V46.408H48.7628C48.7628 47.7049 47.7319 48.8023 46.4682 48.9021Z" fill="#0079FE"/>
<path d="M26.8146 30.9778H32.3682C32.7007 30.9778 33 30.7117 33 30.3459C33 30.0134 32.734 29.7141 32.3682 29.7141H26.8146C26.4821 29.7141 26.1828 29.9801 26.1828 30.3459C26.1828 30.7117 26.4488 30.9778 26.8146 30.9778Z" fill="#0079FE"/>
<path d="M32.3349 46.2417H26.8146C26.4821 46.2417 26.1828 46.5077 26.1828 46.8735C26.1828 47.2061 26.4488 47.5054 26.8146 47.5054H32.3682C32.7007 47.5054 33 47.2393 33 46.8735C32.9668 46.541 32.7007 46.2417 32.3349 46.2417Z" fill="#0079FE"/>
<path d="M26.1828 34.536C26.1828 34.8686 26.4488 35.1679 26.8146 35.1679H41.6463C41.9788 35.1679 42.2781 34.9018 42.2781 34.536C42.2781 34.2035 41.9788 33.9042 41.6463 33.9042H26.8146C26.4821 33.9042 26.1828 34.1702 26.1828 34.536Z" fill="#0079FE"/>
<path d="M41.6463 36.9969H26.8146C26.4821 36.9969 26.1828 37.2629 26.1828 37.6287C26.1828 37.9613 26.4488 38.2606 26.8146 38.2606H41.6463C41.9788 38.2606 42.2781 37.9946 42.2781 37.6287C42.2781 37.2962 41.9788 36.9969 41.6463 36.9969Z" fill="#0079FE"/>
<path d="M41.6463 40.1229H26.8146C26.4821 40.1229 26.1828 40.3889 26.1828 40.7547C26.1828 41.0872 26.4488 41.3865 26.8146 41.3865H41.6463C41.9788 41.3865 42.2781 41.1205 42.2781 40.7547C42.2781 40.3889 41.9788 40.1229 41.6463 40.1229Z" fill="#0079FE"/>
<path d="M41.6463 43.2156H26.8146C26.4821 43.2156 26.1828 43.4816 26.1828 43.8474C26.1828 44.1799 26.4488 44.4792 26.8146 44.4792H41.6463C41.9788 44.4792 42.2781 44.2132 42.2781 43.8474C42.2781 43.4816 41.9788 43.2156 41.6463 43.2156Z" fill="#0079FE"/>
</g>
<defs>
<clipPath id="clip0">
<rect x="19" y="19.5714" width="34.2857" height="34.2857" fill="white"/>
</clipPath>
</defs>
</svg>
