<svg width="125" height="72" fill="none" xmlns="http://www.w3.org/2000/svg"><circle cx="67.143" cy="36" r="35.214" stroke="#0079FE"/><path fill="#fff" d="M0 23.857h125V51H0z"/><g clip-path="url(#clip0)" fill="#0079FE"><path d="M77.236 19.571H60.608c-2.062 0-3.724 1.663-3.758 3.725-1.995.1-3.558 1.762-3.558 3.758v23.045a3.775 3.775 0 003.758 3.758h16.627c2.062 0 3.725-1.663 3.758-3.724 1.995-.1 3.558-1.763 3.558-3.758V23.363c.034-2.096-1.662-3.792-3.757-3.792zM76.204 50.1a2.526 2.526 0 01-2.528 2.528H57.05a2.49 2.49 0 01-2.494-2.494v-23.08a2.49 2.49 0 012.494-2.493h13.435v5.786c0 .332.266.632.632.632h5.088V50.1zm-4.457-20.385v-4.157l3.692 4.157h-3.692zm5.72 19.188V30.346c0-.067-.033-.166-.033-.233 0-.033-.033-.066-.033-.066-.034-.034-.034-.067-.067-.1l-5.753-6.451c-.033-.034-.1-.067-.166-.1-.033 0-.033-.034-.067-.034a.626.626 0 00-.266-.066h-12.97c.034-1.363 1.132-2.46 2.495-2.46h16.628a2.49 2.49 0 012.494 2.493v23.079h.033c0 1.297-1.031 2.394-2.295 2.494z"/><path d="M57.815 30.978h5.553a.631.631 0 100-1.264h-5.553a.631.631 0 00-.632.632c0 .366.266.632.632.632zm5.52 15.264h-5.52a.631.631 0 100 1.263h5.553a.631.631 0 00.632-.632c-.033-.332-.3-.631-.665-.631zm-6.152-11.706c0 .333.266.632.632.632h14.831a.631.631 0 00.632-.632c0-.333-.3-.632-.632-.632H57.815a.631.631 0 00-.632.632zm15.463 2.461H57.815a.631.631 0 100 1.264h14.831a.631.631 0 00.632-.632c0-.333-.3-.632-.632-.632zm0 3.126H57.815a.631.631 0 100 1.264h14.831a.631.631 0 100-1.264zm0 3.093H57.815a.631.631 0 100 1.263h14.831a.631.631 0 100-1.263z"/></g><defs><clipPath id="clip0"/></defs></svg>
