<svg width="40" height="40" fill="none" xmlns="http://www.w3.org/2000/svg"><circle cx="20" cy="20" r="20" fill="#0079FE"/><path d="M30 20c0-5.514-4.486-10-10-10s-10 4.486-10 10a9.975 9.975 0 003.246 7.366l-.01.009.325.273c.02.018.044.033.065.05.172.143.35.279.533.41a10.061 10.061 0 001.592.941l.051.023a9.87 9.87 0 002.42.766l.066.012c.263.045.53.082.799.106l.099.008c.268.022.54.036.814.036.272 0 .541-.014.808-.036l.102-.007c.267-.025.53-.06.791-.105l.069-.012a9.91 9.91 0 002.384-.747l.083-.038a10.007 10.007 0 001.393-.796c.068-.046.133-.094.2-.142a9.88 9.88 0 00.469-.358c.033-.027.07-.05.103-.079l.332-.277-.01-.009A9.974 9.974 0 0030 20zm-19.273 0c0-5.113 4.16-9.273 9.273-9.273 5.113 0 9.273 4.16 9.273 9.273a9.25 9.25 0 01-3.123 6.932 2.738 2.738 0 00-.325-.195l-3.08-1.54a.806.806 0 01-.447-.724v-1.075a7.412 7.412 0 001.176-2.16 1.32 1.32 0 00.758-1.197v-1.289c0-.315-.116-.62-.323-.861v-1.697c.019-.189.086-1.254-.685-2.132-.67-.766-1.755-1.153-3.224-1.153-1.47 0-2.554.387-3.224 1.152-.77.879-.704 1.944-.685 2.133v1.697c-.207.24-.323.546-.323.861v1.29c0 .4.18.773.488 1.025a6.834 6.834 0 001.124 2.323v1.052c0 .297-.162.57-.422.712l-2.875 1.569a2.65 2.65 0 00-.274.173A9.25 9.25 0 0110.727 20zm14.713 7.503a9.148 9.148 0 01-.388.267 9.179 9.179 0 01-.706.419l-.12.06c-.409.21-.832.39-1.267.537l-.047.015a9.303 9.303 0 01-.692.201h-.002a9.276 9.276 0 01-.714.147c-.007 0-.014.002-.02.003a9.32 9.32 0 01-.682.084l-.121.009a9.01 9.01 0 01-.681.028c-.23 0-.46-.011-.69-.029l-.118-.009c-.23-.02-.46-.047-.687-.084l-.03-.006a9.247 9.247 0 01-1.415-.353l-.043-.015a9.438 9.438 0 01-.677-.259l-.005-.002c-.21-.09-.416-.19-.62-.297l-.08-.04a9.376 9.376 0 01-.704-.42 9.266 9.266 0 01-.487-.34l-.048-.038.034-.02 2.876-1.568c.494-.27.802-.787.802-1.35v-1.31l-.084-.101a6.072 6.072 0 01-1.092-2.26l-.033-.145-.124-.08a.603.603 0 01-.28-.506v-1.29c0-.169.072-.326.203-.444l.12-.108v-2.026l-.003-.047c-.001-.01-.109-.884.508-1.586.525-.6 1.427-.904 2.677-.904 1.246 0 2.144.302 2.671.897.616.695.515 1.586.514 1.593l-.003 2.073.12.109c.13.117.202.275.202.444v1.29a.606.606 0 01-.43.572l-.18.056-.058.18a6.726 6.726 0 01-.908 1.83 4.432 4.432 0 01-.267.345l-.09.103v1.345c0 .586.325 1.113.85 1.375l3.079 1.54.058.03c-.04.029-.08.056-.118.085z" fill="#fff" opacity=".8"/></svg>
