<svg width="20" height="20" fill="none" xmlns="http://www.w3.org/2000/svg"><g clip-path="url(#clip0)" fill="#B7B7B7"><path d="M10.867 13.915a.494.494 0 01-.53.065.496.496 0 01-.286-.453v-3.403c-3.183.012-5.383.24-8.048 4.946a.499.499 0 01-.934-.245v-.396C1.049 11.103 1.01 4.247 10.05 3.92V.5a.5.5 0 01.816-.387l7.885 6.51a.502.502 0 01.184.383c0 .15-.066.29-.18.383l-7.889 6.526zm.184-12.353V4.41c0 .274-.22.498-.494.502-3.759.037-6.195 1.184-7.452 3.514-.792 1.461-.984 3.187-1.028 4.636 2.567-3.726 4.978-3.934 8.476-3.938a.5.5 0 01.502.502v2.844l6.595-5.464-6.6-5.444z"/><path d="M1.065 19.502v-2.195a.502.502 0 111.003 0v1.697h15.766V10.28a.502.502 0 111.004 0v9.219a.502.502 0 01-.502.502H1.566a.5.5 0 01-.502-.498z"/></g><defs><clipPath id="clip0"/></defs></svg>
