<svg width="20" height="20" fill="none" xmlns="http://www.w3.org/2000/svg"><g clip-path="url(#clip0)" fill="#fff"><path d="M9.133 13.915a.494.494 0 00.53.065.496.496 0 00.286-.453v-3.403c3.183.012 5.383.24 8.048 4.946a.499.499 0 00.934-.245v-.396c.02-3.326.058-10.182-8.982-10.509V.5a.5.5 0 00-.816-.387l-7.885 6.51a.502.502 0 00-.184.383c0 .15.066.29.18.383l7.889 6.526zM8.949 1.562V4.41c0 .274.22.498.494.502 3.759.037 6.195 1.184 7.452 3.514.792 1.461.983 3.187 1.028 4.636-2.567-3.726-4.978-3.934-8.476-3.938a.5.5 0 00-.502.502v2.844L2.35 7.006l6.6-5.444z"/><path d="M18.936 19.502v-2.195a.502.502 0 10-1.004 0v1.697H2.166V10.28a.502.502 0 10-1.004 0v9.219c0 .277.225.502.502.502h16.77a.5.5 0 00.502-.498z"/></g><defs><clipPath id="clip0"/></defs></svg>
