<svg width="12" height="12" fill="none" xmlns="http://www.w3.org/2000/svg"><path d="M8.492 10.705l-.168.685c-.503.199-.905.35-1.204.454-.3.104-.647.156-1.044.156-.609 0-1.082-.15-1.42-.445a1.442 1.442 0 01-.507-1.132c0-.177.012-.36.038-.545.025-.186.066-.395.122-.629l.629-2.225c.056-.213.103-.414.141-.605.039-.19.058-.365.058-.522 0-.284-.06-.483-.176-.594-.117-.112-.34-.168-.673-.168-.162 0-.33.026-.5.076-.17.05-.317.1-.44.145l.169-.686c.412-.168.805-.311 1.182-.43.376-.12.732-.18 1.069-.18.604 0 1.07.146 1.399.439.327.292.491.671.491 1.139 0 .096-.01.267-.034.51a3.415 3.415 0 01-.126.671l-.626 2.216a5.887 5.887 0 00-.137.61 3.143 3.143 0 00-.061.519c0 .294.065.495.197.601.132.107.36.16.685.16.152 0 .325-.027.517-.08.192-.053.332-.1.419-.14zm.159-9.304c0 .386-.146.716-.438.987a1.49 1.49 0 01-1.055.409c-.412 0-.764-.137-1.06-.409a1.294 1.294 0 01-.441-.987c0-.385.147-.715.442-.99A1.5 1.5 0 017.159 0c.41 0 .762.137 1.054.411.292.275.438.605.438.99z" fill="#B7B7B7"/></svg>
