<svg width="30" height="30" fill="none" xmlns="http://www.w3.org/2000/svg"><g clip-path="url(#clip0)" fill="#fff"><path d="M23.86 27.863V8.096a2.076 2.076 0 00-2.027-2.123H19.59V.393a.247.247 0 00-.241-.25h-8.857a.247.247 0 00-.242.25v5.592H8.018A2.076 2.076 0 005.982 8.1v19.762a2.076 2.076 0 002.027 2.124h13.815a2.076 2.076 0 002.036-2.124zM10.734.643h8.377v6.054a.751.751 0 01-.738.762H11.47a.751.751 0 01-.736-.762V.644zm12.643 27.21a1.593 1.593 0 01-1.553 1.608H8.018a1.593 1.593 0 01-1.553-1.611V8.096a1.593 1.593 0 011.553-1.608h2.236v.21A1.243 1.243 0 0011.47 7.96h6.903a1.243 1.243 0 001.218-1.264v-.21h2.233c.872.022 1.564.74 1.553 1.612v19.753z"/><path d="M21.057 9.01H8.785a1.083 1.083 0 00-1.062 1.102v6.533c-.01.598.465 1.09 1.062 1.102h12.272a1.083 1.083 0 001.062-1.102V10.11a1.083 1.083 0 00-1.062-1.1zm.579 1.102v6.533a.59.59 0 01-.58.6H8.787a.59.59 0 01-.58-.6v-6.533a.59.59 0 01.58-.6h12.27a.59.59 0 01.58.6zm-11.207 8.482H8.284a.247.247 0 00-.242.25v2.227a.247.247 0 00.242.25h2.147a.247.247 0 00.242-.25v-2.227a.247.247 0 00-.244-.25zm-.242 2.228H8.52v-1.726h1.667v1.726zm3.959-2.228a.21.21 0 00-.008 0H12a.247.247 0 00-.242.25v2.227a.247.247 0 00.242.25h2.148a.247.247 0 00.241-.25v-2.227a.247.247 0 00-.244-.25zm-.247 2.228h-1.667v-1.726h1.667v1.726zm3.942-2.228h-2.137a.247.247 0 00-.241.25v2.227a.247.247 0 00.241.25h2.137a.247.247 0 00.242-.25v-2.227a.247.247 0 00-.241-.25zm-.238 2.228h-1.668v-1.726h1.668v1.726zm3.956-2.228h-2.143a.247.247 0 00-.242.25v2.227a.247.247 0 00.242.25h2.143a.247.247 0 00.241-.25v-2.227a.247.247 0 00-.241-.25zm-.24 2.228h-1.667v-1.726h1.668v1.726zm-10.89 1.351H8.284a.247.247 0 00-.242.25v2.227a.247.247 0 00.242.25h2.147a.247.247 0 00.242-.25v-2.227a.247.247 0 00-.244-.25zm-.242 2.228H8.52v-1.726h1.667v1.726zm3.959-2.228a.21.21 0 00-.008 0H12a.247.247 0 00-.242.25v2.227a.247.247 0 00.242.25h2.148a.247.247 0 00.241-.25v-2.227a.247.247 0 00-.244-.25zm-.247 2.228h-1.667v-1.726h1.667v1.726zm3.942-2.228h-2.137a.247.247 0 00-.241.25v2.227a.247.247 0 00.241.25h2.137a.247.247 0 00.242-.25v-2.227a.247.247 0 00-.241-.25zm-.238 2.228h-1.668v-1.726h1.668v1.726zm3.956-2.228h-2.143a.247.247 0 00-.242.25v2.227a.247.247 0 00.242.25h2.143a.247.247 0 00.241-.25v-2.227a.247.247 0 00-.241-.25zm-.24 2.228h-1.667v-1.726h1.668v1.726zm-10.89 1.351H8.284a.247.247 0 00-.242.25v2.227a.247.247 0 00.242.25h2.147a.247.247 0 00.242-.25v-2.227a.247.247 0 00-.244-.25zm-.242 2.228H8.52v-1.726h1.667v1.726zm3.959-2.228H12a.247.247 0 00-.242.25v2.227a.247.247 0 00.242.25h2.148a.247.247 0 00.241-.25v-2.227a.247.247 0 00-.244-.25zm-.247 2.228h-1.667v-1.726h1.667v1.726zm3.942-2.228h-2.137a.247.247 0 00-.241.25v2.227a.247.247 0 00.241.25h2.137a.247.247 0 00.242-.25v-2.227a.247.247 0 00-.241-.25zm-.238 2.228h-1.668v-1.726h1.668v1.726zm3.956-2.228h-2.143a.247.247 0 00-.242.25v2.227a.247.247 0 00.242.25h2.143a.247.247 0 00.241-.25v-2.227a.247.247 0 00-.241-.25zm-.24 2.228h-1.667v-1.726h1.668v1.726zM18.123 1.427h-6.404a.25.25 0 100 .502h6.404a.25.25 0 100-.502zm0 1.373h-6.404a.25.25 0 100 .502h6.404a.25.25 0 100-.502zm0 1.375h-6.404a.25.25 0 100 .502h6.404a.25.25 0 100-.502z"/></g><defs><clipPath id="clip0"/></defs></svg>
