<svg width="12" height="12" viewBox="0 0 12 12" fill="none" xmlns="http://www.w3.org/2000/svg">
<path d="M7.75001 9C7.61182 9 7.5 9.11182 7.5 9.25001V11C7.5 11.2756 7.27563 11.5 7.00001 11.5H1.00001C0.724383 11.5 0.500016 11.2756 0.500016 11V1.00001C0.500016 0.724383 0.724383 0.500016 1.00001 0.500016H7.00001C7.27563 0.500016 7.5 0.724383 7.5 1.00001V2.75002C7.5 2.8882 7.61182 3.00002 7.75001 3.00002C7.8882 3.00002 8.00002 2.8882 8.00002 2.75002V1.00001C7.99999 0.448477 7.55152 0 7.00001 0H1.00001C0.448477 0 0 0.448477 0 1.00001V11C0 11.5515 0.448477 12 1.00001 12H7.00001C7.55152 12 8.00002 11.5515 8.00002 11V9.24998C7.99999 9.11182 7.8882 9 7.75001 9Z" fill="#ADAEAF"/>
<path d="M11.919 5.81566L8.91895 3.06567C8.81665 2.97241 8.6592 2.97949 8.56568 3.08105C8.47242 3.18286 8.47924 3.34106 8.58105 3.43432L11.1074 5.74999H3.25001C3.11182 5.74999 3 5.86181 3 6C3 6.13819 3.11182 6.25001 3.25001 6.25001H11.1074L8.58108 8.56568C8.47927 8.65894 8.47245 8.81714 8.5657 8.91895C8.61502 8.97267 8.6824 9 8.75004 9C8.81034 9 8.87088 8.97827 8.91898 8.93433L11.919 6.18433C11.9707 6.13697 12 6.07008 12 6C12 5.92992 11.9707 5.86303 11.919 5.81566Z" fill="#ADAEAF"/>
</svg>
