<svg width="15" height="15" fill="none" xmlns="http://www.w3.org/2000/svg"><path d="M2.852 14.126a2.54 2.54 0 01-1.807-.749 2.559 2.559 0 010-3.614l7.9-7.901A3.348 3.348 0 0111.33.874c.901 0 1.748.35 2.385.988a3.35 3.35 0 01.988 2.384c0 .9-.35 1.748-.988 2.384l-6.22 6.22a.478.478 0 11-.675-.676l6.22-6.22a2.4 2.4 0 00.707-1.708c0-.645-.252-1.252-.708-1.709a2.4 2.4 0 00-1.709-.707 2.4 2.4 0 00-1.709.707l-7.9 7.902a1.602 1.602 0 000 2.262c.604.604 1.657.604 2.262 0L9.29 7.396a.77.77 0 000-1.095.774.774 0 00-1.095 0L4.57 9.924a.478.478 0 11-.675-.675l3.623-3.624a1.733 1.733 0 012.953 1.223c0 .456-.184.901-.506 1.223l-5.306 5.306a2.54 2.54 0 01-1.807.75z" fill="#0079FE"/></svg>
