<svg width="8" height="25" viewBox="0 0 8 25" fill="none" xmlns="http://www.w3.org/2000/svg">
<path d="M7.41016 0.748535L6.83008 16.4106H1.22266L0.642578 0.748535H7.41016ZM4.02637 24.6445C3.07031 24.6445 2.25928 24.333 1.59326 23.71C0.927246 23.0869 0.594238 22.3242 0.594238 21.4219C0.594238 20.5303 0.927246 19.7729 1.59326 19.1499C2.25928 18.5269 3.07031 18.2153 4.02637 18.2153C4.96094 18.2153 5.7666 18.5269 6.44336 19.1499C7.10938 19.7729 7.44238 20.5303 7.44238 21.4219C7.44238 22.3242 7.10938 23.0869 6.44336 23.71C5.7666 24.333 4.96094 24.6445 4.02637 24.6445Z" fill="#0079FE"/>
</svg>
