<svg width="12" height="12" viewBox="0 0 12 12" fill="none" xmlns="http://www.w3.org/2000/svg">
<g clip-path="url(#clip0)">
<path d="M0.0377658 1.10077L0.83807 2.50122C0.865065 2.54854 0.910249 2.58278 0.963087 2.59603L1.70973 2.78269L4.27056 5.34352L4.55351 5.06065L1.9526 2.45982C1.92701 2.43414 1.89491 2.41595 1.85977 2.40715L1.14234 2.22715L0.460963 1.0341L1.04514 0.449925L2.23869 1.13196L2.41876 1.84939C2.42749 1.88461 2.44576 1.91679 2.47135 1.94239L5.07226 4.5433L5.35513 4.26034L2.79431 1.69952L2.60764 0.953284C2.59439 0.900363 2.56016 0.855097 2.51283 0.82802L1.1123 0.027798C1.0342 -0.016645 0.935927 -0.0034767 0.872225 0.0599781L0.0720034 0.860282C0.00764325 0.923573 -0.00634808 1.02201 0.0377658 1.10077V1.10077Z" fill="#ADAEAF"/>
<path d="M8.35577 3.943L3.95434 8.34451L3.67139 8.06155L8.07289 3.66013L8.35577 3.943Z" fill="#ADAEAF"/>
<path d="M3.18385 8.50023C3.14764 8.43999 3.08262 8.4032 3.01233 8.4032H1.81196C1.74176 8.4032 1.67666 8.43999 1.64053 8.50023L1.0403 9.50053C1.00219 9.5639 1.00219 9.64316 1.0403 9.70661L1.64053 10.7069C1.67666 10.7671 1.74176 10.8039 1.81196 10.8039H3.01233C3.08262 10.8039 3.14764 10.7671 3.18385 10.7069L3.784 9.70661C3.8221 9.64316 3.8221 9.5639 3.784 9.50053L3.18385 8.50023ZM2.89917 10.4038H1.92521L1.44506 9.60357L1.92521 8.80327H2.89917L3.37932 9.60357L2.89917 10.4038Z" fill="#ADAEAF"/>
<path d="M9.61585 4.80199C10.9372 4.80643 12.0121 3.73881 12.0165 2.41745C12.0172 2.2163 11.9925 2.01598 11.943 1.82101C11.9164 1.71377 11.8078 1.6485 11.7006 1.67517C11.6653 1.68398 11.6332 1.70216 11.6076 1.72776L10.3622 2.97233L9.37405 2.64304L9.04451 1.65517L10.2899 0.40953C10.368 0.331343 10.3679 0.20468 10.2897 0.126576C10.264 0.100815 10.2316 0.0825443 10.1961 0.0738203C8.91464 -0.250696 7.61287 0.525 7.28835 1.80636C7.23905 2.00076 7.21445 2.20059 7.2151 2.40115C7.2156 2.55868 7.23181 2.71571 7.26375 2.86995L2.88224 7.25137C2.728 7.21952 2.57097 7.20331 2.41353 7.20273C1.08756 7.20273 0.0126953 8.2776 0.0126953 9.60356C0.0126953 10.9294 1.08756 12.0043 2.41353 12.0043C3.73941 12.0043 4.81427 10.9294 4.81427 9.60356C4.81378 9.44604 4.79748 9.28901 4.76563 9.13477L5.81457 8.08583L6.27332 8.54458C6.35151 8.62269 6.47809 8.62269 6.55628 8.54458L6.65627 8.44451C6.74401 8.35735 6.88581 8.35735 6.97355 8.44451C7.0612 8.53191 7.06136 8.6738 6.97396 8.76145C6.97388 8.76153 6.97371 8.7617 6.97355 8.76186L6.87355 8.86186C6.79545 8.93996 6.79545 9.06663 6.87355 9.14473L9.26014 11.5313C9.88786 12.1648 10.9102 12.1694 11.5437 11.5417C12.1771 10.914 12.1817 9.89154 11.554 9.25814C11.5506 9.25469 11.5472 9.25123 11.5437 9.24777L9.1571 6.86126C9.079 6.78316 8.95233 6.78316 8.87423 6.86126L8.77423 6.96126C8.68642 7.0485 8.54469 7.0485 8.45688 6.96126C8.36931 6.87386 8.36906 6.73197 8.45647 6.6444C8.45663 6.64423 8.45679 6.64415 8.45688 6.64399L8.55696 6.54391C8.63506 6.4658 8.63506 6.33914 8.55696 6.26103L8.09821 5.80228L9.14714 4.75335C9.30138 4.7852 9.45841 4.80149 9.61585 4.80199V4.80199ZM10.4019 11.6042C10.2566 11.604 10.1125 11.5777 9.97642 11.5266L11.5389 9.96405C11.7747 10.5913 11.4574 11.2908 10.8302 11.5266C10.6934 11.5781 10.5483 11.6044 10.4019 11.6042ZM8.13541 6.40449C7.91385 6.66876 7.94858 7.06266 8.21285 7.28413C8.44511 7.47877 8.78362 7.47861 9.01563 7.28355L11.2608 9.53073C11.2852 9.55517 11.308 9.58093 11.33 9.6071L9.61947 11.3177C9.59322 11.2957 9.56746 11.2729 9.54302 11.2485L7.29609 9.00136C7.51765 8.73709 7.48292 8.34319 7.21864 8.12172C6.98639 7.92699 6.6478 7.92724 6.41579 8.12221L6.09572 7.80214L7.81525 6.08516L8.13541 6.40449ZM8.94328 4.39229L4.40474 8.92992C4.35495 8.97963 4.33495 9.05181 4.3519 9.12004C4.62638 10.1979 3.97504 11.2943 2.89705 11.5687C1.81914 11.8432 0.722797 11.1918 0.44832 10.1138C0.173925 9.03593 0.825263 7.93958 1.90325 7.66511C2.22933 7.58215 2.57097 7.58215 2.89705 7.66511C2.96528 7.68181 3.03729 7.66181 3.08717 7.61235L7.62464 3.07463C7.67435 3.02492 7.69435 2.95274 7.67723 2.8846C7.40465 1.81928 8.04726 0.734705 9.11258 0.462039C9.31389 0.4106 9.52211 0.390847 9.72951 0.403769L8.67415 1.45954C8.62058 1.51303 8.60181 1.59229 8.62576 1.66414L9.02583 2.8646C9.04583 2.92427 9.09274 2.97118 9.15249 2.99101L10.3529 3.39117C10.4247 3.41512 10.504 3.39643 10.5576 3.34294L11.6129 2.28758C11.6153 2.32577 11.6165 2.36354 11.6165 2.40115C11.6221 3.50046 10.7356 4.39615 9.63626 4.40183C9.46631 4.40266 9.29693 4.38175 9.13233 4.33961C9.0641 4.32258 8.99192 4.34249 8.94221 4.3922H8.94328V4.39229Z" fill="#ADAEAF"/>
<path d="M10.3566 10.0622L10.0736 10.3452L8.073 8.3446L8.35587 8.06165L10.3566 10.0622Z" fill="#ADAEAF"/>
</g>
<defs>
<clipPath id="clip0">
<rect width="12" height="12" fill="white"/>
</clipPath>
</defs>
</svg>
