<svg width="24" height="24" fill="none" xmlns="http://www.w3.org/2000/svg"><g clip-path="url(#clip0)"><path d="M23.61 10.87a14.855 14.855 0 00-5.045-4.13 14.557 14.557 0 00-6.75-1.54c-2.24.027-4.386.543-6.38 1.54a14.854 14.854 0 00-5.046 4.13 1.835 1.835 0 000 2.26 14.854 14.854 0 005.045 4.13 14.556 14.556 0 006.751 1.54 14.556 14.556 0 006.38-1.54 14.854 14.854 0 005.046-4.13 1.835 1.835 0 000-2.26zM5.87 16.387a13.874 13.874 0 01-4.71-3.857.86.86 0 010-1.06 13.873 13.873 0 014.71-3.857 13.77 13.77 0 011.586-.672A6.787 6.787 0 005.197 12c0 2.007.873 3.813 2.26 5.06a13.774 13.774 0 01-1.586-.673zm6.13 1.44A5.833 5.833 0 016.173 12 5.833 5.833 0 0112 6.173 5.833 5.833 0 0117.827 12 5.833 5.833 0 0112 17.827zm10.84-5.298a13.873 13.873 0 01-4.71 3.858c-.518.259-1.047.481-1.585.67A6.788 6.788 0 0018.803 12a6.788 6.788 0 00-2.26-5.06c.539.19 1.068.414 1.586.672a13.874 13.874 0 014.712 3.858.86.86 0 010 1.06z" fill="#B7B7B7"/><path d="M12 9.506A2.496 2.496 0 009.506 12 2.496 2.496 0 0012 14.493 2.496 2.496 0 0014.493 12 2.496 2.496 0 0012 9.506zm0 4.011a1.518 1.518 0 010-3.034 1.518 1.518 0 010 3.034z" fill="#B7B7B7"/><path stroke="#B7B7B7" d="M1.646 21.646l20-20"/></g><defs><clipPath id="clip0"/></defs></svg>
