<svg width="25" height="25" fill="none" xmlns="http://www.w3.org/2000/svg"><path d="M12.5 25C19.404 25 25 19.404 25 12.5S19.404 0 12.5 0 0 5.596 0 12.5 5.596 25 12.5 25z" fill="#6F3FAA"/><path d="M17.923 6.858c-3.043-.735-6.09-1.595-9.21-.503-2.021.758-2.021 2.947-1.937 4.798 0 .505-.59 1.179-.337 1.768.505 1.684.926 3.367 2.694 4.209.253.168 0 .505.168.757-.084 0-.252.085-.252.169 0 .403.18 1.02.06 1.418l5.372 5.37c5.522-.88 9.838-5.375 10.445-10.983l-7.003-7.003z" fill="#512D84"/><path d="M19.113 8.785l-.005-.016c-.334-1.35-1.84-2.8-3.222-3.1l-.016-.004a17.908 17.908 0 00-6.74 0l-.016.003c-1.383.302-2.888 1.75-3.223 3.1l-.004.017a13.194 13.194 0 000 5.684l.004.016c.32 1.293 1.714 2.675 3.045 3.056v1.507c0 .545.665.813 1.043.42l1.527-1.588a17.828 17.828 0 004.364-.29l.016-.004c1.383-.301 2.889-1.75 3.223-3.1l.004-.017a13.194 13.194 0 000-5.684zm-1.209 5.41c-.223.881-1.366 1.977-2.275 2.179a16.705 16.705 0 01-3.585.29.085.085 0 00-.063.025l-1.115 1.145L9.68 19.05a.139.139 0 01-.24-.096v-2.497a.086.086 0 00-.07-.084c-.908-.202-2.051-1.298-2.274-2.178a11.972 11.972 0 010-5.137c.223-.881 1.366-1.976 2.274-2.179a16.679 16.679 0 016.26 0c.908.203 2.051 1.298 2.274 2.179a11.958 11.958 0 010 5.136z" fill="#fff"/><path d="M14.476 15.348c-.14-.042-.273-.07-.396-.122-1.281-.531-2.46-1.217-3.393-2.268-.531-.597-.947-1.272-1.298-1.986-.167-.338-.307-.69-.45-1.04-.13-.319.061-.648.264-.888.19-.226.434-.398.699-.525.206-.1.41-.042.56.133.327.378.626.776.869 1.215.149.27.108.6-.162.783-.066.045-.126.097-.187.148a.613.613 0 00-.141.148.407.407 0 00-.027.358c.333.916.895 1.628 1.817 2.012.148.062.296.133.466.113.285-.033.377-.345.576-.508a.543.543 0 01.654-.03c.21.134.414.277.617.42.198.143.396.28.58.442.176.156.236.36.137.57-.182.386-.446.707-.827.911-.108.058-.237.077-.358.114-.14-.042.121-.037 0 0zm-1.973-7.27c1.676.047 3.052 1.158 3.347 2.815.05.282.068.57.09.857.01.12-.059.235-.189.236-.134.002-.194-.11-.203-.23-.017-.24-.03-.479-.062-.715a2.993 2.993 0 00-2.411-2.502c-.187-.033-.378-.042-.567-.062-.12-.013-.277-.02-.303-.169-.023-.124.083-.224.201-.23.033-.002.065 0 .097 0 1.676.047-.032 0 0 0z" fill="#fff"/><path d="M15.05 11.378c-.003.02-.005.07-.017.116-.044.169-.3.19-.358.02a.505.505 0 01-.02-.162 2.03 2.03 0 00-.257-1.018 1.895 1.895 0 00-.795-.745 2.283 2.283 0 00-.633-.195c-.095-.016-.192-.025-.288-.038-.116-.017-.178-.09-.173-.205a.18.18 0 01.201-.178 2.64 2.64 0 011.098.286c.695.368 1.092.949 1.208 1.725.005.035.013.07.016.105.007.087.01.174.017.289-.002.02-.006-.115 0 0z" fill="#fff"/><path d="M14.007 11.337c-.14.003-.215-.075-.23-.203-.01-.09-.017-.18-.039-.268a.753.753 0 00-.277-.436.731.731 0 00-.227-.109c-.103-.03-.21-.021-.312-.047-.111-.027-.173-.117-.155-.222a.201.201 0 01.212-.161c.65.047 1.114.382 1.18 1.147.005.054.01.11-.002.163a.165.165 0 01-.15.136c-.14.003.064-.004 0 0z" fill="#fff"/><path d="M19.113 8.785l-.005-.016c-.187-.757-.742-1.545-1.438-2.144l-.94.833c.559.446 1.038 1.063 1.174 1.6a11.958 11.958 0 010 5.137c-.223.881-1.366 1.977-2.274 2.179a16.72 16.72 0 01-3.586.29.085.085 0 00-.063.025l-1.115 1.145L9.68 19.05a.139.139 0 01-.24-.096v-2.497a.086.086 0 00-.069-.084c-.517-.115-1.109-.519-1.565-1.007l-.929.823c.58.632 1.329 1.142 2.06 1.35v1.508c0 .545.664.813 1.042.42l1.527-1.588a17.825 17.825 0 004.364-.29l.016-.004c1.383-.301 2.889-1.75 3.222-3.1l.005-.017a13.193 13.193 0 000-5.684z" fill="#D1D1D1"/><path d="M14.476 15.348c.121-.038-.14-.043 0 0z" fill="#fff"/><path d="M15.524 13.753c-.184-.161-.382-.3-.58-.441a13.585 13.585 0 00-.617-.42.543.543 0 00-.654.029c-.2.163-.291.475-.576.508-.17.02-.318-.052-.466-.113a3.013 3.013 0 01-1.323-1.053l-.691.613.07.082c.933 1.051 2.112 1.737 3.393 2.268.123.051.256.08.396.122-.14-.042.121-.037 0 0 .121-.037.25-.056.358-.114.381-.205.646-.526.827-.911.1-.21.039-.415-.137-.57z" fill="#D1D1D1"/><path d="M12.508 8.078zm-.004-.001h.004c.093.004 1.605.046-.004 0z" fill="#fff"/><path d="M14.906 9.074l-.294.261c.463.451.782 1.048.874 1.706.032.236.045.476.062.714.009.12.069.233.203.231.13-.001.199-.116.19-.236-.023-.287-.041-.575-.091-.857a3.364 3.364 0 00-.944-1.819zm.11 1.91c-.085-.566-.32-1.027-.709-1.379l-.294.261c.152.135.284.293.385.468.179.309.256.663.257 1.018 0 .054.002.112.02.162.058.17.313.149.358-.02.012-.046.014-.095.016-.116-.002.021-.006-.115 0 0-.006-.115-.01-.202-.017-.29-.003-.034-.011-.07-.016-.104z" fill="#D1D1D1"/><path d="M15.05 11.378c-.007-.115-.003.02 0 0zm-1.043-.041l.007-.001a.59.59 0 00-.024 0l.017.001z" fill="#fff"/><path d="M14.008 11.338l-.018-.002a.24.24 0 00.018.002zm.006-.002l-.006.001c.016 0 .015-.001.006-.001z" fill="#fff"/><path d="M13.712 10.133l-.3.265a.753.753 0 01.326.468c.022.087.03.178.04.268.014.122.083.198.212.202h.024a.166.166 0 00.143-.136.517.517 0 00.002-.162c-.037-.428-.199-.721-.447-.905z" fill="#D1D1D1"/></svg>
