<svg width="42" height="42" viewBox="0 0 42 42" fill="none" xmlns="http://www.w3.org/2000/svg">
<path d="M40.0312 1.3125H19.0312C18.9451 1.3125 18.8597 1.32947 18.7801 1.36245C18.7005 1.39543 18.6281 1.44377 18.5672 1.50471C18.5063 1.56564 18.4579 1.63799 18.4249 1.71761C18.392 1.79723 18.375 1.88257 18.375 1.96875V10.5H19.6875V2.625H39.375V22.9688C39.375 23.839 39.0293 24.6736 38.4139 25.2889C37.7986 25.9043 36.964 26.25 36.0938 26.25C35.2235 26.25 34.3889 25.9043 33.7736 25.2889C33.1582 24.6736 32.8125 23.839 32.8125 22.9688V16.4062C32.8111 15.1883 32.3267 14.0207 31.4655 13.1595C30.6043 12.2983 29.4367 11.8139 28.2188 11.8125H6.5625C5.34459 11.8139 4.17695 12.2983 3.31575 13.1595C2.45456 14.0207 1.97013 15.1883 1.96875 16.4062V40.0312C1.96875 40.1174 1.98572 40.2028 2.0187 40.2824C2.05168 40.362 2.10002 40.4344 2.16096 40.4953C2.22189 40.5562 2.29424 40.6046 2.37386 40.6376C2.45348 40.6705 2.53882 40.6875 2.625 40.6875H24.2812C24.3674 40.6875 24.4528 40.6705 24.5324 40.6376C24.612 40.6046 24.6844 40.5562 24.7453 40.4953C24.8062 40.4344 24.8546 40.362 24.8876 40.2824C24.9205 40.2028 24.9375 40.1174 24.9375 40.0312V16.4062C24.9375 15.536 25.2832 14.7014 25.8986 14.0861C26.5139 13.4707 27.3485 13.125 28.2188 13.125C29.089 13.125 29.9236 13.4707 30.5389 14.0861C31.1543 14.7014 31.5 15.536 31.5 16.4062V22.9688C31.4996 23.5802 31.6217 24.1856 31.8591 24.7491C32.0964 25.3127 32.4442 25.823 32.8819 26.25H26.25V27.5625H36.0938C37.3117 27.5611 38.4793 27.0767 39.3405 26.2155C40.2017 25.3543 40.6861 24.1867 40.6875 22.9688V1.96875C40.6875 1.88257 40.6705 1.79723 40.6376 1.71761C40.6046 1.63799 40.5562 1.56564 40.4953 1.50471C40.4344 1.44377 40.362 1.39543 40.2824 1.36245C40.2028 1.32947 40.1174 1.3125 40.0312 1.3125ZM23.625 16.4062V39.375H3.28125V16.4062C3.28223 15.5363 3.62825 14.7023 4.24339 14.0871C4.85853 13.472 5.69256 13.126 6.5625 13.125H25.0069C24.5692 13.552 24.2214 14.0623 23.9841 14.6259C23.7467 15.1894 23.6246 15.7948 23.625 16.4062Z" fill="#0079FE"/>
<path d="M24.9375 3.9375H34.125V5.25H24.9375V3.9375Z" fill="#0079FE"/>
<path d="M21 6.5625H27.5625V7.875H21V6.5625Z" fill="#0079FE"/>
<path d="M31.5 6.5625H38.0625V7.875H31.5V6.5625Z" fill="#0079FE"/>
<path d="M21 9.1875H38.0625V10.5H21V9.1875Z" fill="#0079FE"/>
<path d="M34.125 11.8125H36.75V13.125H34.125V11.8125Z" fill="#0079FE"/>
<path d="M34.125 14.4375H36.75V15.75H34.125V14.4375Z" fill="#0079FE"/>
<path d="M34.125 17.0625H36.75V18.375H34.125V17.0625Z" fill="#0079FE"/>
<path d="M34.125 19.6875H36.75V21H34.125V19.6875Z" fill="#0079FE"/>
<path d="M34.125 22.3125H36.75V23.625H34.125V22.3125Z" fill="#0079FE"/>
<path d="M18.375 17.0625H21V18.375H18.375V17.0625Z" fill="#0079FE"/>
<path d="M18.375 19.6875H21V21H18.375V19.6875Z" fill="#0079FE"/>
<path d="M4.59375 22.3125H22.3125V23.625H4.59375V22.3125Z" fill="#0079FE"/>
<path d="M7.875 14.4375H21V15.75H7.875V14.4375Z" fill="#0079FE"/>
<path d="M5.25 17.0625H11.1562V18.375H5.25V17.0625Z" fill="#0079FE"/>
<path d="M5.25 19.6875H11.1562V21H5.25V19.6875Z" fill="#0079FE"/>
<path d="M17.0625 24.9375H21V26.25H17.0625V24.9375Z" fill="#0079FE"/>
<path d="M17.0625 27.5625H21V28.875H17.0625V27.5625Z" fill="#0079FE"/>
<path d="M3.9375 30.1875H5.25V38.0625H3.9375V30.1875Z" fill="#0079FE"/>
<path d="M6.07031 36.75H7.38281V38.0625H6.07031V36.75Z" fill="#0079FE"/>
<path d="M6.07031 30.1875H7.38281V34.125H6.07031V30.1875Z" fill="#0079FE"/>
<path d="M8.20312 36.75H9.51562V38.0625H8.20312V36.75Z" fill="#0079FE"/>
<path d="M8.20312 30.1875H9.51562V34.125H8.20312V30.1875Z" fill="#0079FE"/>
<path d="M10.3359 36.75H11.6484V38.0625H10.3359V36.75Z" fill="#0079FE"/>
<path d="M10.3359 30.1875H11.6484V34.125H10.3359V30.1875Z" fill="#0079FE"/>
<path d="M12.4688 30.1875H13.7812V38.0625H12.4688V30.1875Z" fill="#0079FE"/>
<path d="M14.6016 36.75H15.9141V38.0625H14.6016V36.75Z" fill="#0079FE"/>
<path d="M14.6016 30.1875H15.9141V34.125H14.6016V30.1875Z" fill="#0079FE"/>
<path d="M16.7344 36.75H18.0469V38.0625H16.7344V36.75Z" fill="#0079FE"/>
<path d="M16.7344 30.1875H18.0469V34.125H16.7344V30.1875Z" fill="#0079FE"/>
<path d="M18.8672 36.75H20.1797V38.0625H18.8672V36.75Z" fill="#0079FE"/>
<path d="M18.8672 30.1875H20.1797V34.125H18.8672V30.1875Z" fill="#0079FE"/>
<path d="M21 30.1875H22.3125V38.0625H21V30.1875Z" fill="#0079FE"/>
</svg>
