<svg width="42" height="42" viewBox="0 0 42 42" fill="none" xmlns="http://www.w3.org/2000/svg">
<g clip-path="url(#clip0)">
<path d="M37.625 7H4.37497C1.9635 7 0 8.9635 0 11.3751V30.6251C0 33.0366 1.9635 35.0001 4.37497 35.0001H37.6249C40.0364 35.0001 41.9999 33.0366 41.9999 30.6251V11.3751C42 8.9635 40.0365 7 37.625 7ZM40.25 30.625C40.25 32.0723 39.0723 33.25 37.625 33.25H4.37497C2.9277 33.25 1.74997 32.0723 1.74997 30.625V11.3751C1.74997 9.92778 2.9277 8.75005 4.37497 8.75005H37.6249C39.0722 8.75005 40.2499 9.92778 40.2499 11.3751V30.625H40.25Z" fill="#0079FE"/>
<path d="M41.125 12.25H0.875027C0.392027 12.25 0 12.642 0 13.125V18.375C0 18.858 0.392027 19.2501 0.875027 19.2501H41.1251C41.6081 19.2501 42.0001 18.858 42.0001 18.375V13.125C42 12.642 41.608 12.25 41.125 12.25ZM40.25 17.5H1.74997V14H40.2499V17.5H40.25Z" fill="#0079FE"/>
<path d="M16.625 24.5H6.12503C5.64203 24.5 5.25 24.892 5.25 25.375C5.25 25.858 5.64203 26.25 6.12503 26.25H16.625C17.108 26.25 17.5001 25.8579 17.5001 25.3749C17.5001 24.8919 17.108 24.5 16.625 24.5Z" fill="#0079FE"/>
<path d="M16.625 28H6.12503C5.64203 28 5.25 28.392 5.25 28.875C5.25 29.358 5.64203 29.7501 6.12503 29.7501H16.625C17.108 29.7501 17.5001 29.358 17.5001 28.875C17.5 28.392 17.108 28 16.625 28Z" fill="#0079FE"/>
<path d="M34.125 22.75H32.375C30.9277 22.75 29.75 23.9277 29.75 25.375V27.125C29.75 28.5722 30.9277 29.75 32.375 29.75H34.125C35.5723 29.75 36.75 28.5722 36.75 27.125V25.375C36.75 23.9278 35.5723 22.75 34.125 22.75ZM35 27.1251C35 27.608 34.608 28.0001 34.125 28.0001H32.375C31.892 28.0001 31.5 27.608 31.5 27.1251V25.3751C31.5 24.8921 31.892 24.5001 32.375 24.5001H34.125C34.608 24.5001 35 24.8921 35 25.3751V27.1251Z" fill="#0079FE"/>
</g>
<defs>
<clipPath id="clip0">
<rect width="42" height="42" fill="white"/>
</clipPath>
</defs>
</svg>
