<svg width="14" height="14" viewBox="0 0 14 14" fill="none" xmlns="http://www.w3.org/2000/svg">
<g clip-path="url(#clip0)">
<path d="M13.9481 6.83424C13.8379 6.67381 11.1884 2.9165 6.99997 2.9165C3.40598 2.9165 0.203434 6.65224 0.0686817 6.81149C-0.0228939 6.91999 -0.0228939 7.07924 0.0686817 7.18832C0.203434 7.34757 3.40598 11.0833 6.99997 11.0833C10.5939 11.0833 13.7965 7.34757 13.9312 7.18832C14.0158 7.08799 14.0234 6.94274 13.9481 6.83424ZM6.99997 10.5C4.11885 10.5 1.37945 7.75243 0.683543 6.99992C1.3783 6.24683 4.11477 3.49986 6.99997 3.49986C10.3711 3.49986 12.7506 6.24333 13.3316 6.98417C12.6607 7.71275 9.90559 10.5 6.99997 10.5Z" fill="#333333"/>
<path d="M6.99938 4.6665C5.71254 4.6665 4.66602 5.71302 4.66602 6.99987C4.66602 8.28672 5.71254 9.33324 6.99938 9.33324C8.28623 9.33324 9.33275 8.28672 9.33275 6.99987C9.33275 5.71302 8.28623 4.6665 6.99938 4.6665ZM6.99938 8.74993C6.03454 8.74993 5.24935 7.96474 5.24935 6.9999C5.24935 6.03506 6.03454 5.24987 6.99938 5.24987C7.96423 5.24987 8.74942 6.03506 8.74942 6.9999C8.74942 7.96474 7.96423 8.74993 6.99938 8.74993Z" fill="#333333"/>
</g>
<defs>
<clipPath id="clip0">
<rect width="14" height="14" fill="white"/>
</clipPath>
</defs>
</svg>
