<svg width="14" height="14" viewBox="0 0 14 14" fill="none" xmlns="http://www.w3.org/2000/svg">
<g clip-path="url(#clip0)">
<path d="M6.99932 4.375L6.99805 7.43581C6.99805 7.55202 7.04418 7.66311 7.12623 7.74513L9.31585 9.93433L9.9345 9.31568L7.87303 7.25464L7.8743 4.375H6.99932Z" fill="#333333"/>
<path d="M7.87501 0.875C4.79548 0.875 2.24679 3.16205 1.81993 6.12501H0L2.1875 8.31251L4.375 6.12501H2.70403C3.12258 3.64602 5.27869 1.75001 7.87501 1.75001C10.77 1.75001 13.125 4.10499 13.125 7.00002C13.125 9.89505 10.77 12.25 7.87501 12.25C6.24763 12.25 4.73861 11.5135 3.73498 10.2291L3.04541 10.7675C4.21605 12.2654 5.97631 13.125 7.87501 13.125C11.2524 13.125 14 10.377 14 7.00002C14 3.62308 11.2524 0.875025 7.87501 0.875Z" fill="#333333"/>
</g>
<defs>
<clipPath id="clip0">
<rect width="14" height="14" fill="white"/>
</clipPath>
</defs>
</svg>
