<svg width="42" height="42" viewBox="0 0 42 42" fill="none" xmlns="http://www.w3.org/2000/svg">
<circle cx="21" cy="21" r="21" fill="#0079FE"/>
<path d="M19.2939 11.9761H23.249L22.9326 24.7378H19.6104L19.2939 11.9761ZM22.7876 30.7363C22.3745 31.1318 21.8691 31.3296 21.2715 31.3296C20.6738 31.3296 20.1641 31.1318 19.7422 30.7363C19.3291 30.332 19.1226 29.8398 19.1226 29.2598C19.1226 28.6797 19.3291 28.1919 19.7422 27.7964C20.1641 27.3921 20.6738 27.1899 21.2715 27.1899C21.8691 27.1899 22.3745 27.3921 22.7876 27.7964C23.2095 28.1919 23.4204 28.6797 23.4204 29.2598C23.4204 29.8398 23.2095 30.332 22.7876 30.7363Z" fill="white"/>
</svg>
