<svg width="42" height="42" viewBox="0 0 42 42" fill="none" xmlns="http://www.w3.org/2000/svg">
<path d="M33.3047 16.1608V12.3047C33.3047 5.51981 27.7849 0 21 0C14.2151 0 8.69531 5.51981 8.69531 12.3047V16.1608C6.82526 16.5418 5.41406 18.1991 5.41406 20.1797V24.8366C5.41406 25.2897 5.78128 25.6569 6.23438 25.6569C6.68747 25.6569 7.05469 25.2897 7.05469 24.8366V20.1797C7.05469 18.8226 8.15858 17.7188 9.51562 17.7188H32.4844C33.8414 17.7188 34.9453 18.8226 34.9453 20.1797V37.8984C34.9453 38.9677 34.2596 39.8797 33.3047 40.2184V35.2734C33.3047 34.8203 32.9375 34.4531 32.4844 34.4531C32.0313 34.4531 31.6641 34.8203 31.6641 35.2734V40.3594H9.51562C8.15858 40.3594 7.05469 39.2555 7.05469 37.8984V31.418C7.05469 30.9649 6.68747 30.5977 6.23438 30.5977C5.78128 30.5977 5.41406 30.9649 5.41406 31.418V37.8984C5.41406 40.1601 7.254 42 9.51562 42H32.4844C34.746 42 36.5859 40.1601 36.5859 37.8984V20.1797C36.5859 18.1991 35.1747 16.5418 33.3047 16.1608ZM14.7656 16.0781V12.3047C14.7656 8.86707 17.5624 6.07031 21 6.07031C24.4376 6.07031 27.2344 8.86707 27.2344 12.3047V16.0781H14.7656ZM28.875 16.0781V12.3047C28.875 7.96248 25.3422 4.42969 21 4.42969C16.6578 4.42969 13.125 7.96248 13.125 12.3047V16.0781H10.3359V12.3047C10.3359 6.42439 15.1197 1.64062 21 1.64062C26.8803 1.64062 31.6641 6.42439 31.6641 12.3047V16.0781H28.875Z" fill="#0079FE"/>
<path d="M6.23438 28.915C6.45003 28.915 6.66183 28.8276 6.81436 28.6747C6.96689 28.5222 7.05469 28.3107 7.05469 28.0947C7.05469 27.8791 6.96689 27.6673 6.81436 27.5151C6.66183 27.3622 6.45003 27.2744 6.23438 27.2744C6.01872 27.2744 5.80692 27.3622 5.65439 27.5151C5.50186 27.6673 5.41406 27.8791 5.41406 28.0947C5.41406 28.3107 5.50186 28.5222 5.65439 28.6747C5.80692 28.8276 6.01872 28.915 6.23438 28.915Z" fill="#0079FE"/>
<path d="M20.9992 37.5705C22.3562 37.5705 23.4601 36.4666 23.4601 35.1096V30.7536C24.6925 29.9378 25.4395 28.5663 25.4395 27.0635C25.4395 24.6211 23.4521 22.6338 21.0098 22.6338C18.5671 22.6338 16.5801 24.6211 16.5801 27.0635C16.5801 28.5554 17.3187 29.9218 18.5383 30.7395V35.1096C18.5383 36.4666 19.6422 37.5705 20.9992 37.5705ZM18.2207 27.0635C18.2207 25.5254 19.4717 24.2744 21.0098 24.2744C22.5475 24.2744 23.7988 25.5254 23.7988 27.0635C23.7988 28.1196 23.2124 29.0729 22.2688 29.552C21.9932 29.6917 21.8195 29.9743 21.8195 30.2835V35.1096C21.8195 35.562 21.4516 35.9299 20.9992 35.9299C20.5467 35.9299 20.1789 35.562 20.1789 35.1096V30.2726C20.1789 29.9657 20.0074 29.6843 19.7344 29.5436C18.8007 29.0623 18.2207 28.1119 18.2207 27.0635Z" fill="#0079FE"/>
<path d="M32.4844 32.7305C32.701 32.7305 32.9118 32.6427 33.0644 32.4901C33.2169 32.3376 33.3047 32.1268 33.3047 31.9102C33.3047 31.6935 33.2169 31.4827 33.0644 31.3302C32.9118 31.1776 32.701 31.0898 32.4844 31.0898C32.2687 31.0898 32.0569 31.1776 31.9044 31.3302C31.7519 31.4827 31.6641 31.6945 31.6641 31.9102C31.6641 32.1258 31.7519 32.3376 31.9044 32.4901C32.0569 32.6427 32.2687 32.7305 32.4844 32.7305Z" fill="#0079FE"/>
</svg>
