<svg width="50" height="50" viewBox="0 0 50 50" fill="none" xmlns="http://www.w3.org/2000/svg">
<path d="M31.2378 25.0005C31.2378 33.631 24.2463 40.624 15.6189 40.624C6.99148 40.624 0 33.6294 0 25.0005C0 16.3715 6.99319 9.37695 15.6189 9.37695C24.2446 9.37695 31.2378 16.3715 31.2378 25.0005Z" fill="#E2574C"/>
<path d="M34.3772 9.37695C30.8743 9.37695 27.6496 10.5441 25.0436 12.4924L25.0561 12.4939C25.5686 12.9891 26.1341 13.3377 26.57 13.9078L23.3203 13.9593C22.811 14.4734 22.347 15.0327 21.9095 15.614H27.6402C28.0761 16.1373 28.4791 16.592 28.8448 17.17H20.8706C20.5784 17.6731 20.3082 18.1903 20.0722 18.7277H29.7526C30.0057 19.2635 30.2323 19.6682 30.4245 20.2354H19.4989C19.3255 20.7745 19.1771 21.3259 19.0645 21.8883H30.8822C30.9979 22.4289 31.0868 22.9288 31.1478 23.4382H18.8301C18.7785 23.9523 18.752 24.4741 18.752 25.0006H31.2367C31.2367 25.5538 31.1977 26.0661 31.1415 26.5631H18.8301C18.8832 27.0927 18.9613 27.613 19.0645 28.1255H30.8634C30.7415 28.6317 30.6008 29.1409 30.4243 29.669H19.4629C19.6284 30.2033 19.8301 30.722 20.0503 31.2282H29.7526C29.4839 31.7969 29.1793 32.2515 28.8434 32.7843H20.8427C21.1583 33.3311 21.5067 33.8529 21.8847 34.3529L27.6403 34.4387C27.1497 35.0277 26.5202 35.3824 25.9467 35.898C25.9778 35.923 25.0296 35.8949 23.1625 35.8653C26.0029 38.7963 29.9728 40.6241 34.377 40.6241C43.006 40.6241 50.0005 33.6294 50.0005 25.0006C50.0005 16.3719 43.0075 9.37695 34.3772 9.37695Z" fill="#F4B459"/>
</svg>
