<svg width="42" height="42" viewBox="0 0 42 42" fill="none" xmlns="http://www.w3.org/2000/svg">
<g clip-path="url(#clip0)">
<path d="M36.8118 18.5109C37.1547 18.5109 37.4332 18.2324 37.4332 17.8892V8.14032C37.4332 7.35237 36.792 6.71118 36.0037 6.71118H33.5662V4.78537C33.5662 3.99646 32.9256 3.35591 32.1367 3.35591H29.6194V1.42946C29.6194 0.64151 28.9779 0 28.1899 0H11.0348C10.6916 0 10.4132 0.278458 10.4132 0.621323C10.4132 0.964508 10.6916 1.24297 11.0348 1.24297H28.1899C28.2924 1.24297 28.3764 1.3266 28.3764 1.42946V33.8597C28.3764 33.9622 28.2924 34.0459 28.1899 34.0459C26.6477 34.0459 6.81468 34.0459 6.02321 34.0459C5.92035 34.0459 5.83672 33.9622 5.83672 33.8597V1.42946C5.83672 1.3266 5.92035 1.24297 6.02321 1.24297H8.54887C8.89174 1.24297 9.1702 0.964508 9.1702 0.621323C9.1702 0.278458 8.89174 0 8.54887 0H6.02321C5.23526 0 4.59375 0.64151 4.59375 1.42946V33.8597C4.59375 34.6476 5.23526 35.2888 6.02321 35.2888H8.5415V37.2146C8.5415 38.0035 9.18173 38.6441 9.97 38.6441H12.4079V40.5705C12.4079 41.3585 13.0491 42 13.837 42H36.0037C36.792 42 37.4332 41.3585 37.4332 40.5705V20.3752C37.4332 20.0323 37.1547 19.7538 36.8118 19.7538C36.468 19.7538 36.1902 20.0323 36.1902 20.3752V40.5705C36.1902 40.6734 36.1066 40.757 36.0037 40.757H13.837C13.7345 40.757 13.6508 40.6734 13.6508 40.5705V38.6441H32.1367C32.9256 38.6441 33.5662 38.0035 33.5662 37.2146V28.6199C33.5662 28.2771 33.2883 27.9986 32.9445 27.9986C32.6013 27.9986 32.3232 28.2771 32.3232 28.6199V37.2146C32.3232 37.3175 32.2402 37.4011 32.1367 37.4011C31.5455 37.4011 10.5676 37.4011 9.97 37.4011C9.86714 37.4011 9.78415 37.3175 9.78415 37.2146V35.2888H28.1899C28.9779 35.2888 29.6194 34.6476 29.6194 33.8597C29.6194 32.9522 29.6194 6.03539 29.6194 4.59888H32.1367C32.2402 4.59888 32.3232 4.68251 32.3232 4.78537V7.95415V26.1343C32.3232 26.4781 32.6013 26.7556 32.9445 26.7556C33.2883 26.7556 33.5662 26.4781 33.5662 26.1343V7.95415H36.0037C36.1066 7.95415 36.1902 8.03778 36.1902 8.14032V17.8892C36.1902 18.2324 36.468 18.5109 36.8118 18.5109Z" fill="#0079FE"/>
<path d="M20.6126 6.15251C20.6126 4.21901 19.0396 2.646 17.1061 2.646C15.1726 2.646 13.5996 4.21901 13.5996 6.15251C13.5996 8.08601 15.1726 9.65871 17.1061 9.65871C19.0396 9.65871 20.6126 8.08601 20.6126 6.15251ZM14.8426 6.15251C14.8426 4.9041 15.858 3.88896 17.1061 3.88896C18.3542 3.88896 19.3697 4.90442 19.3697 6.15251C19.3697 7.4006 18.3542 8.41606 17.1061 8.41606C15.858 8.41606 14.8426 7.4006 14.8426 6.15251Z" fill="#0079FE"/>
<path d="M25.5861 6.77373C25.9296 6.77373 26.2078 6.49559 26.2078 6.1524C26.2078 5.8089 25.9296 5.53076 25.5861 5.53076H22.6721C22.3289 5.53076 22.0508 5.8089 22.0508 6.1524C22.0508 6.49559 22.3289 6.77373 22.6721 6.77373H25.5861Z" fill="#0079FE"/>
<path d="M11.5415 5.53076H8.6275C8.28432 5.53076 8.00586 5.8089 8.00586 6.1524C8.00586 6.49559 8.28432 6.77373 8.6275 6.77373H11.5415C11.8847 6.77373 12.1629 6.49559 12.1629 6.1524C12.1629 5.8089 11.8847 5.53076 11.5415 5.53076Z" fill="#0079FE"/>
<path d="M9.44141 12.0508C9.44141 12.394 9.71954 12.6722 10.0627 12.6722H24.1497C24.4929 12.6722 24.771 12.394 24.771 12.0508C24.771 11.7073 24.4929 11.4292 24.1497 11.4292H10.0627C9.71954 11.4292 9.44141 11.7073 9.44141 12.0508Z" fill="#0079FE"/>
<path d="M24.1494 14.4429H10.0627C9.71954 14.4429 9.44141 14.721 9.44141 15.0642C9.44141 15.4074 9.71954 15.6855 10.0627 15.6855H24.1494C24.4929 15.6855 24.771 15.4074 24.771 15.0642C24.771 14.721 24.4929 14.4429 24.1494 14.4429Z" fill="#0079FE"/>
<path d="M24.1494 17.4565H10.0627C9.71954 17.4565 9.44141 17.7347 9.44141 18.0779C9.44141 18.4214 9.71954 18.6995 10.0627 18.6995H24.1494C24.4929 18.6995 24.771 18.4214 24.771 18.0779C24.771 17.7347 24.4929 17.4565 24.1494 17.4565Z" fill="#0079FE"/>
<path d="M24.1494 20.4697H10.0627C9.71954 20.4697 9.44141 20.7479 9.44141 21.0914C9.44141 21.4346 9.71954 21.7127 10.0627 21.7127H24.1494C24.4929 21.7127 24.771 21.4346 24.771 21.0914C24.771 20.7479 24.4929 20.4697 24.1494 20.4697Z" fill="#0079FE"/>
<path d="M24.1494 23.4834H10.0627C9.71954 23.4834 9.44141 23.7615 9.44141 24.105C9.44141 24.4482 9.71954 24.7264 10.0627 24.7264H24.1494C24.4929 24.7264 24.771 24.4482 24.771 24.105C24.771 23.7615 24.4929 23.4834 24.1494 23.4834Z" fill="#0079FE"/>
<path d="M24.4196 26.6379C24.1539 26.4204 23.7627 26.4591 23.5448 26.7245L20.5782 30.3425L19.2029 28.9947C18.9578 28.7547 18.5643 28.7586 18.324 29.0037C18.084 29.2488 18.0878 29.6423 18.3329 29.8823L19.8729 31.3919C20.3055 31.8158 21.0082 31.7777 21.3928 31.3092L24.5061 27.5127C24.7237 27.2474 24.6849 26.8555 24.4196 26.6379Z" fill="#0079FE"/>
</g>
<defs>
<clipPath id="clip0">
<rect width="42" height="42" fill="white"/>
</clipPath>
</defs>
</svg>
