<svg width="42" height="42" viewBox="0 0 42 42" fill="none" xmlns="http://www.w3.org/2000/svg">
<path d="M33.3893 31.5998C33.017 31.3416 32.5059 31.4345 32.2479 31.8068C31.9978 32.1677 31.7145 32.5187 31.4053 32.85C31.1982 33.0722 30.9132 33.3401 30.6031 33.6039C30.2581 33.8976 30.2165 34.4153 30.51 34.7604C30.6723 34.951 30.9031 35.049 31.1352 35.049C31.3231 35.049 31.512 34.9848 31.6665 34.8533C32.0283 34.5454 32.353 34.2396 32.6052 33.9688C32.9679 33.5801 33.3015 33.1671 33.5965 32.7412C33.8544 32.3689 33.7617 31.8578 33.3893 31.5998Z" fill="#0079FE"/>
<path d="M29.8169 35.2783C29.6245 34.8681 29.1362 34.6916 28.7259 34.884L28.7002 34.8955C28.2857 35.0784 28.098 35.5627 28.281 35.9772C28.4164 36.284 28.7168 36.4665 29.0319 36.4665C29.1425 36.4665 29.255 36.4439 29.3626 36.3965C29.3826 36.3877 29.4025 36.3787 29.4224 36.3694C29.8326 36.1769 30.0092 35.6886 29.8169 35.2783Z" fill="#0079FE"/>
<path d="M39.5493 2.13281H2.45068C1.0993 2.13281 0 3.23228 0 4.58349V27.5729C0 28.924 1.0993 30.0234 2.45068 30.0234H19.7253C20.4576 33.1217 22.1135 35.316 23.5608 36.7219C25.6733 38.7741 28.0948 39.867 29.0307 39.867C29.9665 39.867 32.3881 38.7742 34.5006 36.722C35.9479 35.316 37.604 33.1217 38.3362 30.0235H39.5493C40.9006 30.0235 42 28.9241 42 27.573V4.58349C42 3.23228 40.9006 2.13281 39.5493 2.13281ZM37.0781 26.6616C37.0781 30.9836 35.0831 33.8505 33.4093 35.4945C31.4239 37.4447 29.3873 38.2032 29.0307 38.2262C28.674 38.2032 26.6374 37.4447 24.652 35.4945C22.9784 33.8505 20.9833 30.9836 20.9833 26.6616V22.6219C23.8076 21.8051 26.4504 20.6873 29.031 19.2183C31.5534 20.6499 34.3146 21.8175 37.0781 22.6214V26.6616ZM40.3594 27.5729C40.3594 28.0194 39.9959 28.3828 39.5493 28.3828H38.6215C38.6843 27.8331 38.7188 27.2598 38.7188 26.6616V21.9999C38.7188 21.6296 38.4707 21.3054 38.1135 21.2083C35.1347 20.3994 32.1372 19.1389 29.4451 17.5632C29.1891 17.4134 28.8723 17.4136 28.6162 17.5634C25.8478 19.1838 23.0124 20.376 19.948 21.2083C19.5907 21.3054 19.3427 21.6297 19.3427 21.9999V26.6616C19.3427 27.2598 19.3771 27.8331 19.44 28.3828H2.45068C2.00402 28.3828 1.64062 28.0194 1.64062 27.5729V13.617H40.3594V27.5729ZM40.3594 11.9765H1.64062V8.69538H40.3594V11.9765ZM40.3594 7.05468H1.64062V4.58349C1.64062 4.13683 2.00402 3.77343 2.45068 3.77343H39.5493C39.9959 3.77343 40.3594 4.13683 40.3594 4.58349V7.05468Z" fill="#0079FE"/>
<path d="M9.8434 19.3599C9.34884 19.3599 8.86051 19.4599 8.40852 19.6505C7.96694 19.4634 7.48165 19.3599 6.97273 19.3599C4.93729 19.3599 3.28125 21.0157 3.28125 23.0511C3.28125 25.0865 4.93721 26.7425 6.97273 26.7425C7.48165 26.7425 7.96694 26.639 8.40844 26.4519C8.86051 26.6425 9.34884 26.7425 9.8434 26.7425C11.8789 26.7425 13.535 25.0865 13.535 23.0511C13.535 21.0157 11.8789 19.3599 9.8434 19.3599ZM6.97273 25.1019C5.84185 25.1019 4.92187 24.182 4.92187 23.0511C4.92187 21.9203 5.84185 21.0005 6.97273 21.0005C8.10344 21.0005 9.02342 21.9203 9.02342 23.0511C9.02342 24.1819 8.10344 25.1019 6.97273 25.1019ZM10.0468 25.0919C10.4364 24.5069 10.664 23.8051 10.664 23.0512C10.664 22.2972 10.4364 21.5956 10.0468 21.0107C11.0825 21.113 11.8943 21.9891 11.8943 23.0512C11.8943 24.1132 11.0825 24.9894 10.0468 25.0919Z" fill="#0079FE"/>
<path d="M8.32099 15.668H4.10156C3.6485 15.668 3.28125 16.0352 3.28125 16.4883C3.28125 16.9413 3.6485 17.3086 4.10156 17.3086H8.32099C8.77405 17.3086 9.1413 16.9412 9.1413 16.4883C9.1413 16.0352 8.77405 15.668 8.32099 15.668Z" fill="#0079FE"/>
<path d="M10.7459 15.668H10.707C10.254 15.668 9.88672 16.0352 9.88672 16.4883C9.88672 16.9413 10.254 17.3086 10.707 17.3086H10.7459C11.1989 17.3086 11.5662 16.9412 11.5662 16.4883C11.5662 16.0352 11.1989 15.668 10.7459 15.668Z" fill="#0079FE"/>
<path d="M33.535 24.7758C33.2149 24.4557 32.6955 24.4555 32.375 24.7758L27.9883 29.1622L25.6895 26.8633C25.3691 26.5432 24.8497 26.543 24.5293 26.8633C24.209 27.1837 24.2089 27.7031 24.5293 28.0235L27.4082 30.9024C27.5684 31.0626 27.7783 31.1428 27.9883 31.1428C28.1982 31.1428 28.4082 31.0626 28.5682 30.9024L33.535 25.936C33.8554 25.6158 33.8554 25.0963 33.535 24.7758Z" fill="#0079FE"/>
</svg>
