<svg width="14" height="14" viewBox="0 0 14 14" fill="none" xmlns="http://www.w3.org/2000/svg">
<g clip-path="url(#clip0)">
<path d="M12.5417 2.3335H1.45832C0.6545 2.3335 0 2.988 0 3.79185V10.2085C0 11.0123 0.6545 11.6668 1.45832 11.6668H12.5416C13.3455 11.6668 14 11.0123 14 10.2085V3.79185C14 2.988 13.3455 2.3335 12.5417 2.3335ZM13.4167 10.2085C13.4167 10.6909 13.0241 11.0835 12.5417 11.0835H1.45832C0.975898 11.0835 0.583324 10.6909 0.583324 10.2085V3.79185C0.583324 3.30942 0.975898 2.91685 1.45832 2.91685H12.5416C13.0241 2.91685 13.4166 3.30942 13.4166 3.79185V10.2085H13.4167Z" fill="#333333"/>
<path d="M13.7083 4.0835H0.291676C0.130676 4.0835 0 4.21417 0 4.37517V6.12517C0 6.28617 0.130676 6.41685 0.291676 6.41685H13.7084C13.8694 6.41685 14 6.28617 14 6.12517V4.37517C14 4.21417 13.8693 4.0835 13.7083 4.0835ZM13.4167 5.8335H0.583324V4.66682H13.4166V5.8335H13.4167Z" fill="#333333"/>
<path d="M5.54168 8.1665H2.04168C1.88068 8.1665 1.75 8.29718 1.75 8.45818C1.75 8.61918 1.88068 8.74983 2.04168 8.74983H5.54168C5.70268 8.74983 5.83335 8.61915 5.83335 8.45815C5.83335 8.29715 5.70268 8.1665 5.54168 8.1665Z" fill="#333333"/>
<path d="M5.54168 9.3335H2.04168C1.88068 9.3335 1.75 9.46417 1.75 9.62517C1.75 9.78617 1.88068 9.91685 2.04168 9.91685H5.54168C5.70268 9.91685 5.83335 9.78617 5.83335 9.62517C5.83332 9.46417 5.70268 9.3335 5.54168 9.3335Z" fill="#333333"/>
<path d="M11.3743 7.5835H10.791C10.3086 7.5835 9.91602 7.97607 9.91602 8.4585V9.04182C9.91602 9.52425 10.3086 9.91682 10.791 9.91682H11.3743C11.8568 9.91682 12.2493 9.52425 12.2493 9.04182V8.4585C12.2493 7.9761 11.8568 7.5835 11.3743 7.5835ZM11.666 9.04185C11.666 9.20285 11.5353 9.33352 11.3743 9.33352H10.791C10.63 9.33352 10.4993 9.20285 10.4993 9.04185V8.45852C10.4993 8.29752 10.63 8.16685 10.791 8.16685H11.3743C11.5353 8.16685 11.666 8.29752 11.666 8.45852V9.04185Z" fill="#333333"/>
</g>
<defs>
<clipPath id="clip0">
<rect width="14" height="14" fill="white"/>
</clipPath>
</defs>
</svg>
