<svg width="50" height="50" viewBox="0 0 50 50" fill="none" xmlns="http://www.w3.org/2000/svg">
<g clip-path="url(#clip0)">
<path d="M20.4375 17.1758L17.9281 32.7915H21.9391L24.4469 17.1758H20.4375ZM32.536 23.5367C31.1344 22.8446 30.2751 22.3774 30.2751 21.6695C30.2922 21.0258 31.0017 20.3664 32.5861 20.3664C33.8892 20.3336 34.847 20.6399 35.5736 20.9446L35.9376 21.107L36.4829 17.8398C35.6906 17.5336 34.4345 17.1962 32.8829 17.1962C28.922 17.1962 26.1329 19.2555 26.1156 22.2009C26.0828 24.3744 28.1124 25.5805 29.6313 26.3041C31.1829 27.0463 31.711 27.5275 31.711 28.1869C31.6939 29.1994 30.4564 29.6665 29.3017 29.6665C27.7018 29.6665 26.8424 29.4259 25.5377 28.8618L25.0095 28.6212L24.4486 32.0165C25.3908 32.4354 27.1236 32.804 28.9221 32.8229C33.1315 32.8229 35.8706 30.7947 35.905 27.6557C35.9187 25.9337 34.8485 24.6148 32.536 23.5367ZM46.7657 17.2241H43.6625C42.7062 17.2241 41.9796 17.4992 41.5656 18.4804L35.6077 32.7915H39.8171L40.9764 29.6931H45.6858L46.2874 32.804H50L46.7657 17.2241ZM42.1438 26.5663C42.225 26.5741 43.7595 21.5084 43.7595 21.5084L44.9813 26.5663C44.9813 26.5663 42.936 26.5663 42.1438 26.5663ZM14.5766 17.1758L10.6469 27.7852L10.2188 25.6929C9.49221 23.2788 7.21417 20.6555 4.67188 19.3524L8.27033 32.7759H12.5142L18.8205 17.1775H14.5766V17.1758Z" fill="#2394BC"/>
<path d="M8.89692 19.1906C8.59068 17.9999 7.61403 17.1968 6.28762 17.1797H0.0640929L0 17.4686C4.85478 18.6655 8.92965 22.3482 10.2516 25.8123L8.89692 19.1906Z" fill="#EFC75E"/>
</g>
<defs>
<clipPath id="clip0">
<rect width="50" height="50" fill="white"/>
</clipPath>
</defs>
</svg>
